<svg width="167px" height="167px" viewBox="0 0 167 167" version="1.1" xmlns="http://www.w3.org/2000/svg" xmlns:xlink="http://www.w3.org/1999/xlink">
    <defs>
        <polygon id="path-1" points="0.0001 0.9374 167.143 0.9374 167.143 168 0.0001 168"></polygon>
    </defs>
    <g id="Page-1" stroke="none" stroke-width="1" fill="none" fill-rule="evenodd">
        <g id="EBDSA_Logo_v5">
            <g id="Group" transform="translate(0.000000, -1.000000)">
                <g id="Group-3" transform="translate(0.000000, 0.143000)">
                    <mask id="mask-2" fill="white">
                        <use xlink:href="#path-1"></use>
                    </mask>
                    <g id="Clip-2"></g>
                    <path d="M167.1431,84.5084 C167.1431,130.6634 129.7261,168.0794 83.5711,168.0794 C37.4161,168.0794 0.0001,130.6634 0.0001,84.5084 C0.0001,38.3534 37.4161,0.9374 83.5711,0.9374 C129.7261,0.9374 167.1431,38.3534 167.1431,84.5084" id="Fill-1" fill="#DA2E2A" mask="url(#mask-2)"></path>
                </g>
                <path d="M93.8901,96.8852 C93.8901,96.8852 93.3341,86.9892 94.8961,82.4742 C94.8961,82.4742 96.1151,77.3292 100.7091,74.6622 C100.9381,74.5322 101.1691,74.4122 101.3981,74.3012 C105.4421,72.3472 110.2991,73.2202 113.6301,76.2332 C115.7001,78.1062 118.3571,81.6712 119.8421,84.2202 C122.6461,89.0372 128.3501,96.3122 142.5251,96.3772 C142.5251,96.3772 148.5251,96.8852 155.1751,93.3942" id="Stroke-4" stroke="#FFFFFE" stroke-width="2.5" stroke-linecap="round"></path>
                <path d="M132.439,124.1977 C130.883,124.2717 117.472,124.5687 114.731,125.2357 C112.805,125.6797 109.174,124.8647 107.989,124.4937 C107.396,124.2717 106.729,124.6427 106.507,125.2357 C106.285,125.8277 106.655,126.4947 107.248,126.7167 C107.396,126.7907 110.508,127.6797 113.249,127.6797 C113.916,127.6797 114.657,127.6057 115.25,127.4577 C117.398,126.9397 128.364,126.5687 132.439,126.4947 C133.106,126.4947 133.625,125.9757 133.55,125.3087 C133.625,124.7167 133.032,124.1977 132.439,124.1977" id="Fill-6" fill="#1A1917"></path>
                <path d="M57.7544,130.9399 C50.8644,122.1969 38.9354,124.4199 38.4174,124.4939 C37.7504,124.6429 37.3794,125.2349 37.5274,125.8279 C37.6754,126.4199 38.2684,126.8649 38.9354,126.7169 C39.0834,126.7169 49.9754,124.6429 55.9764,132.2739 C56.4954,132.9399 57.0874,133.5329 57.7544,134.1259 C57.9774,134.3479 58.2734,134.4219 58.5694,134.4219 C58.8664,134.4219 59.2364,134.2739 59.4584,134.0519 C59.9034,133.6069 59.8294,132.8669 59.3844,132.4219 C58.7174,132.0519 58.1994,131.4589 57.7544,130.9399" id="Fill-8" fill="#FFFFFE"></path>
                <path d="M86.0576,100.7109 C86.0576,101.3779 86.5766,101.8969 87.2436,101.8969 C87.9096,101.8969 88.4286,101.3779 88.4286,100.7109 L88.4286,98.7109 L86.0576,100.4149 L86.0576,100.7109 Z" id="Fill-10" fill="#FFFFFE"></path>
                <path d="M96.2822,96.5615 C96.4302,97.0805 96.8752,97.3765 97.3932,97.3765 C97.5422,97.3765 97.6152,97.3765 97.7642,97.3025 C98.3572,97.0805 98.7272,96.4875 98.5052,95.8205 L98.2082,94.8575 C97.0232,95.0055 95.9112,95.3025 95.9112,95.3025 L96.2822,96.5615 Z" id="Fill-12" fill="#FFFFFE"></path>
                <path d="M80.4268,97.8213 L77.9818,96.6353 C76.4258,96.0433 74.4998,95.5243 72.2028,95.3023 L69.5348,95.2283 C67.3868,95.3023 65.3118,95.6733 63.2378,96.1913 L59.8288,97.0803 L59.8288,97.1543 C59.5328,97.2283 59.1628,97.3773 58.8658,97.4503 L55.3838,98.4883 C52.9388,99.2293 50.7898,99.6733 49.0118,100.0443 C46.9378,100.4143 45.9738,100.6363 45.0848,100.6363 C42.2698,100.7113 40.9358,101.0073 38.7138,101.0073 C38.0468,101.0073 37.5278,101.5263 37.5278,102.1933 C37.5278,102.8593 38.0468,103.3783 38.7138,103.3783 C47.5298,103.3783 53.7538,101.5263 59.2368,99.8213 C63.2378,98.6363 66.6458,97.5993 70.2018,97.5993 C77.6118,97.5993 81.3158,101.3033 81.3898,101.3773 L83.8348,103.8223 C84.0568,104.0453 84.3538,104.1933 84.6498,104.1933 C84.9468,104.1933 85.2428,104.0453 85.4648,103.8223 C85.9088,103.3783 85.9088,102.6373 85.4648,102.1933 L84.8718,101.6743 L84.8718,101.3773 L82.5008,99.3773 C82.1308,98.9323 81.3898,98.4143 80.4268,97.8213" id="Fill-14" fill="#FFFFFE"></path>
                <path d="M107.5439,123.9014 L107.2479,123.6054 C106.5069,122.8644 98.1339,114.6404 91.8369,108.4164 C91.3919,107.9714 90.6509,107.9714 90.2069,108.4164 C89.7619,108.8604 89.7619,109.6014 90.2069,110.0464 C96.5039,116.2704 104.8769,124.4944 105.6179,125.2344 L105.9879,125.5314 C107.1739,126.7164 110.4339,129.7554 110.4339,132.1254 C110.4339,132.7184 110.2109,133.1634 109.7669,133.6074 C109.0999,134.2004 108.4329,134.4964 107.6919,134.4964 C106.0629,134.4964 104.5809,133.0894 104.2099,132.7924 C103.5429,132.1254 102.8769,131.4594 102.2839,131.0144 C102.0619,130.7924 101.8389,130.6434 101.7649,130.4954 L96.6529,125.4574 L95.0229,127.0874 L100.1349,132.1254 C100.2829,132.2744 100.5049,132.4964 100.8019,132.7184 C101.9129,133.6814 104.4319,135.9044 104.5059,137.6084 C104.5059,138.0524 104.3579,138.3494 103.9879,138.7194 C103.4689,139.2384 102.8769,139.5344 102.2839,139.4604 C101.0979,139.3864 99.8379,138.2754 99.4679,137.8304 C99.1719,137.3864 98.8009,136.9414 98.3569,136.5714 L92.2809,130.5694 L90.6509,132.1994 L96.7269,138.2014 C97.6899,139.1644 98.3569,140.0534 98.5049,140.8684 C98.7269,141.6834 98.5049,142.2764 97.7639,143.0174 C96.5789,144.1284 94.8749,143.3134 94.2819,143.0174 C93.9849,142.5724 93.6889,142.1284 93.2449,141.6834 C91.8369,140.2764 88.2059,136.2754 88.1319,136.2004 C87.6879,135.7554 86.9469,135.6824 86.5019,136.1264 C85.9829,136.5714 85.9829,137.3124 86.4279,137.7564 C86.5759,137.9044 90.1329,141.9054 91.6139,143.3134 C92.2069,143.9064 92.6519,144.6474 92.7259,145.3884 C92.8739,146.1294 92.6519,146.7964 92.0589,147.3144 C91.8369,147.5364 91.5409,147.6104 91.1699,147.6104 C90.3549,147.6104 88.5019,147.0184 84.9459,143.4614 C84.5019,143.0174 83.7609,143.0174 83.3159,143.4614 C82.8719,143.9064 82.8719,144.6474 83.3159,145.0914 C86.5019,148.3514 89.0949,149.9814 91.1699,149.9814 C92.1329,149.9814 93.0219,149.6114 93.6889,148.9444 C94.5779,148.0554 95.0229,146.9434 95.0969,145.7584 C95.4669,145.8324 95.9119,145.9064 96.2819,145.9064 C97.3189,145.9064 98.4309,145.6104 99.3939,144.6474 C100.2829,143.7574 100.8019,142.7204 100.8759,141.6094 C101.2459,141.7574 101.6909,141.8314 102.1349,141.9054 L102.3579,141.9054 C103.5429,141.9054 104.6539,141.3874 105.6179,140.4984 C106.4329,139.6834 106.8029,138.7194 106.8029,137.6824 C106.8029,137.3864 106.7289,137.0894 106.6549,136.7934 C106.9509,136.8674 107.2479,136.8674 107.6179,136.8674 L107.6919,136.8674 C109.0999,136.8674 110.2859,136.3484 111.3969,135.3114 C112.2859,134.4224 112.7309,133.3854 112.7309,132.1994 C112.6559,128.7914 109.0259,125.3834 107.5439,123.9014" id="Fill-18" fill="#FFFFFE"></path>
                <path d="M91.6143,96.71 C91.6143,96.71 91.6883,96.71 91.6883,96.636 C91.6883,96.71 91.6883,96.71 91.6143,96.71" id="Fill-24" fill="#1A1917"></path>
                <path d="M114.6567,96.71 C114.6567,96.71 114.7307,96.71 114.7307,96.784 C114.7307,96.71 114.7307,96.71 114.6567,96.71" id="Fill-26" fill="#1A1917"></path>
                <path d="M83.6865,141.7573 C82.4275,144.8693 78.2775,148.8703 76.3515,148.8703 C76.1295,148.8703 75.9805,148.7963 75.9075,148.7223 C75.0185,147.6853 76.4995,144.8693 79.5375,141.9053 C80.8715,140.5723 82.2785,139.7573 83.1675,139.7573 C83.4645,139.7573 83.6865,139.8313 83.9085,140.0533 C84.0575,140.2013 84.0575,140.7943 83.6865,141.7573 M75.0185,142.4243 C73.6845,143.7573 71.5355,145.9813 69.9055,145.9813 C69.5355,145.9813 69.1645,145.8323 68.8685,145.5363 C67.3865,144.0543 70.1275,140.1273 73.3885,136.8673 C73.9065,136.3483 74.5735,135.7563 75.2405,135.0893 L75.3145,135.0153 C76.4995,133.9783 77.8335,133.0893 78.7965,133.0893 C79.1665,133.0893 79.3895,133.2363 79.6855,133.4593 C80.1305,133.9033 80.3525,134.3483 80.3525,134.9413 C80.3525,137.2373 77.1665,140.3493 75.8325,141.6093 L75.5365,141.9053 C75.3885,142.0533 75.2405,142.2023 75.0185,142.4243 M63.4595,141.0163 C62.1255,139.6833 64.6445,135.9043 67.7565,132.8663 C70.8685,129.7553 72.7955,128.8653 73.9805,129.9773 C74.4255,130.3473 75.3145,131.2363 73.6105,133.3853 C72.9435,133.9783 72.3505,134.5703 71.6835,135.1633 C70.2755,136.5713 68.4985,138.4973 67.3125,140.4983 C66.4235,141.2383 64.7935,142.2763 63.4595,141.0163 M59.8295,136.5713 C59.6815,136.5713 59.4585,136.5713 59.1625,136.2753 C58.5695,135.6823 59.2365,134.3483 59.6815,133.6073 C60.5705,132.1253 61.9035,130.7173 62.6445,129.9773 L62.9405,129.6803 C63.9045,128.7173 65.6085,127.0873 66.5715,127.0873 C66.7195,127.0873 66.8675,127.0873 67.0905,127.3093 C67.3125,127.5313 67.3865,127.7543 67.3865,128.0503 C67.3865,129.4583 65.6825,131.8293 63.9045,133.5333 L63.4595,133.9783 C62.6445,134.7933 60.9405,136.5713 59.8295,136.5713 M83.1675,137.3863 C82.7975,137.3863 82.4275,137.4603 82.1305,137.5343 C82.5755,136.6453 82.8715,135.7563 82.8715,134.7933 C82.8715,133.6073 82.4275,132.5703 81.5385,131.6813 C80.7965,131.0143 79.9085,130.6433 78.9445,130.6433 C78.3525,130.6433 77.6855,130.7923 77.0925,131.0143 C77.0925,129.6803 76.3515,128.7173 75.6845,128.1983 C73.8325,126.4943 71.6845,127.0133 69.7575,128.1983 L69.7575,127.9023 C69.7575,126.9393 69.3875,126.1243 68.7205,125.5313 C68.1275,124.9393 67.3865,124.6423 66.6455,124.6423 C64.6445,124.6423 62.7925,126.4943 61.3115,127.9763 L61.0145,128.2733 C60.1995,129.0883 58.7175,130.6433 57.6805,132.3473 C55.9025,135.3113 56.5695,136.9413 57.5325,137.8303 C58.1995,138.4973 58.9395,138.7943 59.8295,138.7943 C60.1995,138.7943 60.6445,138.7193 61.0145,138.5713 C60.5705,140.0533 60.7185,141.4613 61.9035,142.5723 C62.7925,143.3873 63.8305,143.8323 64.9415,143.8323 C65.3865,143.8323 65.8305,143.7573 66.2755,143.6103 C66.1265,144.8693 66.3495,145.9803 67.3125,146.9443 C68.0535,147.6853 69.0165,148.1293 70.0535,148.1293 C71.2395,148.1293 72.4245,147.6113 73.4615,146.8693 C73.2395,148.0553 73.3885,149.1663 74.2035,150.1303 C74.7955,150.7973 75.5365,151.0933 76.4255,151.0933 C79.8335,151.0933 84.5755,145.9063 85.9095,142.5723 C86.8725,140.2013 86.2795,138.9423 85.5395,138.2753 C84.8725,137.7563 84.0575,137.3863 83.1675,137.3863" id="Fill-28" fill="#1A1917"></path>
                <path d="M88.0186,99.7104 C88.0186,99.7104 87.5766,86.1894 89.1326,80.0394 C89.1326,80.0394 91.0086,72.4304 97.2076,69.0554 C103.2656,65.7584 109.8036,67.1344 109.8036,67.1344 C109.8036,67.1344 118.3166,67.6284 123.8806,77.8684 C127.3166,85.6984 134.8466,88.9304 134.8466,88.9304 C134.8466,88.9304 143.4046,92.7974 154.9096,87.3834" id="Stroke-32" stroke="#FFFFFE" stroke-width="2.5" stroke-linecap="round"></path>
                <path d="M132.439,101.2295 L132.291,101.2295 C128.067,101.2295 120.732,100.7105 118.732,99.1545 C117.621,98.3395 116.287,97.4505 114.731,96.7095 C114.731,96.7095 114.657,96.7095 114.657,96.6355 C112.064,95.3765 108.878,94.3385 105.247,94.3385 C100.209,94.3385 95.764,95.0055 92.503,96.2655 C92.207,96.3395 91.985,96.4875 91.689,96.5615 C91.689,96.5615 91.614,96.5615 91.614,96.6355 C90.503,97.1545 89.54,97.6725 88.799,98.3395 C88.651,98.4145 88.502,98.5625 88.355,98.7105 C87.984,99.0065 87.54,99.3035 87.021,99.6735 C82.501,102.8595 74.203,108.8605 74.129,115.0845 C74.055,115.7515 73.684,121.3825 76.277,124.1975 C77.241,125.2355 78.5,125.8275 80.056,125.8275 C81.39,125.8275 82.427,125.3835 83.242,124.5685 C84.946,122.7905 84.798,119.7525 84.65,117.2335 C84.576,116.2705 84.501,114.9365 84.65,114.6405 C85.983,112.9365 88.947,110.3425 91.022,110.3425 C91.689,110.3425 92.207,109.8245 92.207,109.1575 C92.207,108.4905 91.689,107.9715 91.022,107.9715 C87.688,107.9715 83.983,111.7505 82.797,113.1585 C82.131,113.9735 82.205,115.3805 82.279,117.3075 C82.353,119.2335 82.501,121.9005 81.538,122.9385 C81.316,123.1605 80.945,123.4575 80.056,123.4575 C79.241,123.4575 78.574,123.1605 78.056,122.6425 C76.426,120.8635 76.352,116.7145 76.5,115.2325 L76.5,115.1585 C76.5,110.1205 84.576,104.3415 88.428,101.6005 C89.244,101.0075 89.91,100.5625 90.355,100.1925 C93.022,98.0435 98.579,96.7095 105.247,96.7095 C110.434,96.7095 114.657,99.0815 117.324,101.0075 C120.658,103.4525 131.253,103.5265 132.439,103.5265 C133.106,103.5265 133.624,103.0075 133.624,102.3405 C133.625,101.7485 133.106,101.2295 132.439,101.2295" id="Fill-34" fill="#1A1917"></path>
                <path d="M76.0552,80.5215 C76.0552,80.5215 72.8852,67.8705 62.7342,68.6115 C62.7342,68.6115 56.5692,67.9075 50.8642,74.5945 C50.8642,74.5945 42.7032,83.6265 33.4422,84.0715 C26.2552,84.4415 24.6512,81.7075 23.3172,80.5215 C22.6502,79.9285 20.3492,77.5925 19.6092,77.2225 C17.6082,76.1855 15.3312,75.2065 12.1452,76.8365" id="Stroke-36" stroke="#FFFFFE" stroke-width="2.5" stroke-linecap="round"></path>
                <path d="M82.5024,100.3032 L82.4634,69.2602 C82.4634,69.2602 81.5744,53.9232 67.7194,49.6252 C67.7194,49.6252 58.9454,45.9542 48.8264,50.3662 C37.1754,55.4472 30.8774,50.2552 30.8774,50.2552 C30.8774,50.2552 26.6914,47.8052 26.0044,40.6492" id="Stroke-38" stroke="#FFFFFE" stroke-width="2.5" stroke-linecap="round"></path>
                <path d="M76.0552,95.8852 L76.0552,69.2602 C76.0552,69.2602 75.0182,59.5532 68.1272,56.9602 C68.1272,56.9602 63.2372,54.2192 58.0512,54.5152 C52.8652,54.8122 47.9742,57.4052 47.9742,57.4052 C47.9742,57.4052 43.8252,59.6282 39.3052,59.7012 C33.0262,60.0722 26.0042,58.4932 21.3482,47.7432" id="Stroke-40" stroke="#FFFFFE" stroke-width="2.5" stroke-linecap="round"></path>
                <path d="M93.7939,13.8682 C93.7939,13.8682 84.4999,27.5542 94.1029,37.9042 C94.6879,38.5352 95.4429,38.9682 96.1089,39.5122 C97.8559,40.9382 102.2199,44.6312 102.5209,50.6252 C102.8439,57.0542 99.4169,61.3452 94.4839,62.9722 C88.4289,64.9292 86.9219,67.8782 85.2339,70.3472 C82.6219,75.1422 82.4639,81.5582 82.4639,81.5582" id="Stroke-42" stroke="#FFFFFE" stroke-width="2.5" stroke-linecap="round"></path>
                <path d="M99.0479,68.1943 C99.0479,68.1943 107.4009,65.3053 109.2479,56.2193 C109.2479,56.2193 110.5669,50.0463 107.9419,43.8673 C105.2199,37.4583 99.6919,34.1393 99.6919,34.1393 C99.6919,34.1393 96.8399,32.1873 96.2759,28.7603 C95.2009,22.2403 99.6919,15.2223 99.6919,15.2223" id="Stroke-44" stroke="#FFFFFE" stroke-width="2.5" stroke-linecap="round"></path>
                <path d="M109.3965,55.8852 C109.3965,55.8852 112.2865,50.6252 118.3615,50.6252 C119.5465,50.6252 121.4735,51.3652 123.9185,53.1442 C125.7705,54.4042 128.0675,55.9592 132.2165,56.2562 C136.5135,56.5522 143.3545,55.6632 146.1085,48.7432" id="Stroke-46" stroke="#FFFFFE" stroke-width="2.5" stroke-linecap="round"></path>
                <path d="M109.5796,47.7153 C109.5796,47.7153 110.9166,45.1903 115.8166,43.9303 C115.8166,43.9303 117.9766,43.2643 121.1026,43.9563 C124.7886,44.7743 128.4416,47.7643 128.4416,47.7643 C128.4416,47.7643 131.1316,49.8053 133.6506,49.8053 C135.8726,49.8053 136.7706,49.5123 138.5666,48.3053 C140.4736,47.0243 142.1296,43.4933 142.1296,43.4933" id="Stroke-48" stroke="#FFFFFE" stroke-width="2.5" stroke-linecap="round"></path>
                <path d="M149.459,88.1494 C149.459,88.1494 147.964,83.5544 148.851,77.8904 C149.589,73.1674 152.518,70.6664 152.518,70.6664" id="Stroke-50" stroke="#FFFFFE" stroke-width="2.5" stroke-linecap="round"></path>
                <path d="M144.1831,89.333 C144.1831,89.333 142.4781,83.596 143.9601,75.446 C145.5161,67.073 150.5671,63.813 150.5671,63.813" id="Stroke-52" stroke="#FFFFFE" stroke-width="2.5" stroke-linecap="round"></path>
                <path d="M72.7021,51.6392 C72.7021,51.6392 76.0551,47.9302 76.3731,41.5242 C76.3731,41.5242 78.9121,23.9942 70.8411,13.8682" id="Stroke-54" stroke="#FFFFFE" stroke-width="2.5" stroke-linecap="round"></path>
                <path d="M77.7012,55.6631 C77.7012,55.6631 80.9332,52.2971 82.0042,46.6971 C85.0752,30.6391 80.3362,17.6221 76.9102,12.8991" id="Stroke-56" stroke="#FFFFFE" stroke-width="2.5" stroke-linecap="round"></path>
                <path d="M76.0552,37.3794 C76.0552,37.3794 53.4422,37.3794 47.7652,22.3224" id="Stroke-58" stroke="#FFFFFE" stroke-width="2.5" stroke-linecap="round"></path>
                <path d="M83.4351,36.7368086 C83.4351,36.7368086 88.8841,36.7538 92.1441,35.2718" id="Stroke-60" stroke="#FFFFFE" stroke-width="2.5" stroke-linecap="round"></path>
                <path d="M82.9829,42.9936 C82.9829,42.9936 91.2749,43.2126 96.8589,40.2226" id="Stroke-62" stroke="#FFFFFE" stroke-width="2.5" stroke-linecap="round"></path>
                <path d="M97.8564,32.2232 C97.8564,32.2232 107.3584,26.8892 108.9414,17.7892" id="Stroke-64" stroke="#FFFFFE" stroke-width="2.5" stroke-linecap="round"></path>
                <path d="M102.6812,36.1318 C102.6812,36.1318 111.9422,32.2228 114.7752,20.6388" id="Stroke-66" stroke="#FFFFFE" stroke-width="2.5" stroke-linecap="round"></path>
                <path d="M117.3984,42.9936 C117.3984,42.9936 116.2754,32.2236 121.4354,24.6756" id="Stroke-68" stroke="#FFFFFE" stroke-width="2.5" stroke-linecap="round"></path>
                <path d="M123.9185,44.6235 C123.9185,44.6235 122.8805,34.6335 127.1975,28.3855" id="Stroke-70" stroke="#FFFFFE" stroke-width="2.5" stroke-linecap="round"></path>
                <path d="M118.3613,50.625 C118.3613,50.625 119.4723,63.887 125.4003,69.963 C131.3273,76.039 143.9603,75.446 143.9603,75.446" id="Stroke-72" stroke="#FFFFFE" stroke-width="2.5" stroke-linecap="round"></path>
                <path d="M125.9189,55.6631 C125.9189,55.6631 126.5119,63.7391 131.4009,67.0731 C136.0509,70.2441 143.2549,69.8281 144.9909,69.6641" id="Stroke-74" stroke="#FFFFFE" stroke-width="2.5" stroke-linecap="round"></path>
                <path d="M43.1694,79.7598 C43.1694,79.7598 39.3274,69.3998 41.0314,60.6568" id="Stroke-76" stroke="#FFFFFE" stroke-width="2.5" stroke-linecap="round"></path>
                <path d="M48.585,76.5449 C48.585,76.5449 45.752,66.1849 47.975,58.4049" id="Stroke-78" stroke="#FFFFFE" stroke-width="2.5" stroke-linecap="round"></path>
                <path d="M42.3438,51.6392 C42.3438,51.6392 43.6918,41.1812 50.5678,36.7372" id="Stroke-80" stroke="#FFFFFE" stroke-width="2.5" stroke-linecap="round"></path>
                <path d="M55.0669,40.0972 C50.3249,44.4692 48.8259,50.3662 48.8259,50.3662" id="Stroke-82" stroke="#FFFFFE" stroke-width="2.5" stroke-linecap="round"></path>
                <path d="M20.9492,77.8315 C21.4822,76.7175 23.5802,69.4515 15.3792,62.1805" id="Stroke-84" stroke="#FFFFFE" stroke-width="2.5" stroke-linecap="round"></path>
                <path d="M26.3765,81.9932 C26.3765,81.9932 32.1915,67.1802 17.5665,56.1182" id="Stroke-86" stroke="#FFFFFE" stroke-width="2.5" stroke-linecap="round"></path>
                <path d="M117.9771,70.6665 C117.9771,70.6665 119.1021,68.4065 122.8811,67.1475" id="Stroke-88" stroke="#FFFFFE" stroke-width="2.5" stroke-linecap="round"></path>
                <path d="M122.8809,74.3423 C122.8809,74.3423 122.8809,72.7783 127.3269,71.5183" id="Stroke-90" stroke="#FFFFFE" stroke-width="2.5" stroke-linecap="round"></path>
                <path d="M55.6802,30.1021 C55.6802,30.1021 61.0972,24.0691 58.1712,17.7891" id="Stroke-92" stroke="#FFFFFE" stroke-width="2.5" stroke-linecap="round"></path>
                <path d="M61.2422,33.3579 C61.2422,33.3579 68.1702,25.9029 63.8172,15.9929" id="Stroke-94" stroke="#FFFFFE" stroke-width="2.5" stroke-linecap="round"></path>
                <path d="M70.1279,95.8057 L70.1279,83.8587 C70.1279,81.4527 69.3839,79.0747 67.8709,77.2027 C66.7589,75.8277 63.7559,74.4767 61.6629,75.1437 C61.6629,75.1437 58.4199,75.7357 52.5059,81.5057 C45.0249,88.8057 37.1089,90.8057 29.4149,90.2647 C29.4149,90.2647 28.0869,90.1247 26.4169,89.7147 C23.7169,89.0527 21.3319,87.4977 19.5409,85.3717 C18.6129,84.2707 17.2729,82.9437 15.8959,82.4847 C13.3929,81.6517 12.1449,82.4847 12.1449,82.4847" id="Stroke-96" stroke="#FFFFFE" stroke-width="2.5" stroke-linecap="round"></path>
                <path d="M75.5044,42.8091 C75.5044,42.8091 61.7464,44.7761 52.1284,37.3891 C44.1004,31.2231 41.9304,25.6731 41.9304,25.6731" id="Stroke-98" stroke="#FFFFFE" stroke-width="2.5" stroke-linecap="round"></path>
            </g>
        </g>
    </g>
</svg>